{
  "accessors": [
    {
      "bufferView": 2,
      "componentType": 5126,
      "count": 65532,
      "max": [
        119.05174255371094,
        103.63760375976563,
        8.900349617004395
      ],
      "min": [
        -119.05574035644531,
        -136.67156982421875,
        -15.978578567504883
      ],
      "type": "VEC3"
    },
    {
      "bufferView": 2,
      "byteOffset": 786384,
      "componentType": 5126,
      "count": 65532,
      "max": [
        0.9999991655349731,
        0.9998106360435486,
        0.999927818775177
      ],
      "min": [
        -0.9999583959579468,
        -0.9995599389076233,
        -0.9999998807907104
      ],
      "type": "VEC3"
    },
    {
      "bufferView": 1,
      "componentType": 5126,
      "count": 65532,
      "max": [
        0.9994885921478271,
        0.9994557499885559
      ],
      "min": [
        0.00018878141418099403,
        0.000588725320994854
      ],
      "type": "VEC2"
    },
    {
      "bufferView": 0,
      "componentType": 5125,
      "count": 327255,
      "type": "SCALAR"
    },
    {
      "bufferView": 2,
      "byteOffset": 1572768,
      "componentType": 5126,
      "count": 65532,
      "max": [
        94.26104736328125,
        59.74223709106445,
        9.026540756225586
      ],
      "min": [
        -126.30079650878906,
        -122.37679290771484,
        -7.188748359680176
      ],
      "type": "VEC3"
    },
    {
      "bufferView": 2,
      "byteOffset": 2359152,
      "componentType": 5126,
      "count": 65532,
      "max": [
        0.9999968409538269,
        0.9999997615814209,
        0.9999996423721313
      ],
      "min": [
        -0.9999512434005737,
        -0.9999995827674866,
        -1.0
      ],
      "type": "VEC3"
    },
    {
      "bufferView": 1,
      "byteOffset": 524256,
      "componentType": 5126,
      "count": 65532,
      "max": [
        0.999322235584259,
        0.998994767665863
      ],
      "min": [
        6.34507741779089e-05,
        0.0006602969951927662
      ],
      "type": "VEC2"
    },
    {
      "bufferView": 0,
      "byteOffset": 1309020,
      "componentType": 5125,
      "count": 313440,
      "type": "SCALAR"
    },
    {
      "bufferView": 2,
      "byteOffset": 3145536,
      "componentType": 5126,
      "count": 65532,
      "max": [
        3.3001928329467773,
        36.7158317565918,
        5.710535526275635
      ],
      "min": [
        -30.870864868164063,
        -13.425326347351074,
        -2.6864986419677734
      ],
      "type": "VEC3"
    },
    {
      "bufferView": 2,
      "byteOffset": 3931920,
      "componentType": 5126,
      "count": 65532,
      "max": [
        0.9999998211860657,
        0.9999916553497314,
        0.9999940395355225
      ],
      "min": [
        -0.9999905228614807,
        -0.9999896287918091,
        -0.9999996423721313
      ],
      "type": "VEC3"
    },
    {
      "bufferView": 1,
      "byteOffset": 1048512,
      "componentType": 5126,
      "count": 65532,
      "max": [
        0.9999475479125977,
        0.9994409084320068
      ],
      "min": [
        1.8122191249858588e-06,
        0.0005078020039945841
      ],
      "type": "VEC2"
    },
    {
      "bufferView": 0,
      "byteOffset": 2562780,
      "componentType": 5125,
      "count": 313461,
      "type": "SCALAR"
    },
    {
      "bufferView": 2,
      "byteOffset": 4718304,
      "componentType": 5126,
      "count": 65532,
      "max": [
        3.0877859592437744,
        9.791089057922363,
        5.766654968261719
      ],
      "min": [
        -34.7138557434082,
        -36.493370056152344,
        -1.9417665004730225
      ],
      "type": "VEC3"
    },
    {
      "bufferView": 2,
      "byteOffset": 5504688,
      "componentType": 5126,
      "count": 65532,
      "max": [
        0.9999669790267944,
        1.0,
        1.0
      ],
      "min": [
        -0.9999951124191284,
        -0.9998925924301147,
        -0.9999997019767761
      ],
      "type": "VEC3"
    },
    {
      "bufferView": 1,
      "byteOffset": 1572768,
      "componentType": 5126,
      "count": 65532,
      "max": [
        0.9992930889129639,
        0.9988114237785339
      ],
      "min": [
        0.0,
        0.0006125178188085556
      ],
      "type": "VEC2"
    },
    {
      "bufferView": 0,
      "byteOffset": 3816624,
      "componentType": 5125,
      "count": 324192,
      "type": "SCALAR"
    },
    {
      "bufferView": 2,
      "byteOffset": 6291072,
      "componentType": 5126,
      "count": 65532,
      "max": [
        33.78850173950195,
        -11.992648124694824,
        5.550829887390137
      ],
      "min": [
        -15.373729705810547,
        -44.42247009277344,
        -3.4359166622161865
      ],
      "type": "VEC3"
    },
    {
      "bufferView": 2,
      "byteOffset": 7077456,
      "componentType": 5126,
      "count": 65532,
      "max": [
        0.9999951720237732,
        0.9999678730964661,
        0.9999997615814209
      ],
      "min": [
        -0.9999980926513672,
        -0.9999974966049194,
        -0.9999996423721313
      ],
      "type": "VEC3"
    },
    {
      "bufferView": 1,
      "byteOffset": 2097024,
      "componentType": 5126,
      "count": 65532,
      "max": [
        0.9977748990058899,
        0.9993445873260498
      ],
      "min": [
        8.556060492992401e-06,
        0.0005308603867888451
      ],
      "type": "VEC2"
    },
    {
      "bufferView": 0,
      "byteOffset": 5113392,
      "componentType": 5125,
      "count": 340494,
      "type": "SCALAR"
    },
    {
      "bufferView": 2,
      "byteOffset": 7863840,
      "componentType": 5126,
      "count": 65534,
      "max": [
        33.994136810302734,
        -18.87108039855957,
        5.1771159172058105
      ],
      "min": [
        9.534309387207031,
        -44.578582763671875,
        -3.4358599185943604
      ],
      "type": "VEC3"
    },
    {
      "bufferView": 2,
      "byteOffset": 8650248,
      "componentType": 5126,
      "count": 65534,
      "max": [
        0.9999931454658508,
        0.9999997019767761,
        0.9999717473983765
      ],
      "min": [
        -0.9999997019767761,
        -0.9999001026153564,
        -0.9999995231628418
      ],
      "type": "VEC3"
    },
    {
      "bufferView": 1,
      "byteOffset": 2621280,
      "componentType": 5126,
      "count": 65534,
      "max": [
        1.0,
        0.9994555115699768
      ],
      "min": [
        0.0,
        0.0005262012127786875
      ],
      "type": "VEC2"
    },
    {
      "bufferView": 0,
      "byteOffset": 6475368,
      "componentType": 5125,
      "count": 306546,
      "type": "SCALAR"
    },
    {
      "bufferView": 2,
      "byteOffset": 9436656,
      "componentType": 5126,
      "count": 65532,
      "max": [
        33.935585021972656,
        31.750961303710938,
        5.213925838470459
      ],
      "min": [
        -32.64262771606445,
        -44.91203689575195,
        -4.86824369430542
      ],
      "type": "VEC3"
    },
    {
      "bufferView": 2,
      "byteOffset": 10223040,
      "componentType": 5126,
      "count": 65532,
      "max": [
        0.9999917149543762,
        0.9998984932899475,
        0.9999922513961792
      ],
      "min": [
        -0.999995768070221,
        -0.9999970197677612,
        -0.9999995827674866
      ],
      "type": "VEC3"
    },
    {
      "bufferView": 1,
      "byteOffset": 3145552,
      "componentType": 5126,
      "count": 65532,
      "max": [
        0.9998707175254822,
        0.9992719292640686
      ],
      "min": [
        0.0,
        0.0001831629779189825
      ],
      "type": "VEC2"
    },
    {
      "bufferView": 0,
      "byteOffset": 7701552,
      "componentType": 5125,
      "count": 272739,
      "type": "SCALAR"
    },
    {
      "bufferView": 2,
      "byteOffset": 11009424,
      "componentType": 5126,
      "count": 65532,
      "max": [
        -19.448312759399414,
        27.979949951171875,
        5.707835674285889
      ],
      "min": [
        -36.031944274902344,
        0.7593209743499756,
        -6.54798698425293
      ],
      "type": "VEC3"
    },
    {
      "bufferView": 2,
      "byteOffset": 11795808,
      "componentType": 5126,
      "count": 65532,
      "max": [
        0.9999391436576843,
        0.9999821186065674,
        0.9999996423721313
      ],
      "min": [
        -0.9999956488609314,
        -0.9999943375587463,
        -1.0
      ],
      "type": "VEC3"
    },
    {
      "bufferView": 1,
      "byteOffset": 3669808,
      "componentType": 5126,
      "count": 65532,
      "max": [
        0.999398946762085,
        0.9993106722831726
      ],
      "min": [
        3.2479874789714813e-06,
        0.0005129611236043274
      ],
      "type": "VEC2"
    },
    {
      "bufferView": 0,
      "byteOffset": 8792508,
      "componentType": 5125,
      "count": 321099,
      "type": "SCALAR"
    },
    {
      "bufferView": 2,
      "byteOffset": 12582192,
      "componentType": 5126,
      "count": 65532,
      "max": [
        -8.603508949279785,
        46.086029052734375,
        5.980467796325684
      ],
      "min": [
        -41.000606536865234,
        10.791423797607422,
        -3.5151119232177734
      ],
      "type": "VEC3"
    },
    {
      "bufferView": 2,
      "byteOffset": 13368576,
      "componentType": 5126,
      "count": 65532,
      "max": [
        0.999990701675415,
        0.9999948143959045,
        0.9999999403953552
      ],
      "min": [
        -0.9999980330467224,
        -0.9999394416809082,
        -0.9999995231628418
      ],
      "type": "VEC3"
    },
    {
      "bufferView": 1,
      "byteOffset": 4194064,
      "componentType": 5126,
      "count": 65532,
      "max": [
        0.9994418025016785,
        0.9994888305664063
      ],
      "min": [
        4.2891970224445686e-05,
        0.0005140388966538012
      ],
      "type": "VEC2"
    },
    {
      "bufferView": 0,
      "byteOffset": 10076904,
      "componentType": 5125,
      "count": 301290,
      "type": "SCALAR"
    },
    {
      "bufferView": 2,
      "byteOffset": 14154960,
      "componentType": 5126,
      "count": 65532,
      "max": [
        -17.289947509765625,
        50.81724548339844,
        5.989205360412598
      ],
      "min": [
        -44.668846130371094,
        19.179960250854492,
        -4.879368782043457
      ],
      "type": "VEC3"
    },
    {
      "bufferView": 2,
      "byteOffset": 14941344,
      "componentType": 5126,
      "count": 65532,
      "max": [
        0.9997775554656982,
        0.9999895691871643,
        0.9999932050704956
      ],
      "min": [
        -0.9999956488609314,
        -0.9999684691429138,
        -0.9999988079071045
      ],
      "type": "VEC3"
    },
    {
      "bufferView": 1,
      "byteOffset": 4718320,
      "componentType": 5126,
      "count": 65532,
      "max": [
        0.9999337792396545,
        0.9994998574256897
      ],
      "min": [
        2.897354534070473e-06,
        0.0005483469576574862
      ],
      "type": "VEC2"
    },
    {
      "bufferView": 0,
      "byteOffset": 11282064,
      "componentType": 5125,
      "count": 288435,
      "type": "SCALAR"
    },
    {
      "bufferView": 2,
      "byteOffset": 15727728,
      "componentType": 5126,
      "count": 50799,
      "max": [
        141.19932556152344,
        132.32028198242188,
        6.2284722328186035
      ],
      "min": [
        -84.01616668701172,
        -133.4883270263672,
        -25.249868392944336
      ],
      "type": "VEC3"
    },
    {
      "bufferView": 2,
      "byteOffset": 16337316,
      "componentType": 5126,
      "count": 50799,
      "max": [
        0.9999931454658508,
        0.9999805092811584,
        0.9999933242797852
      ],
      "min": [
        -0.9999935030937195,
        -0.9999750256538391,
        -0.9999994039535522
      ],
      "type": "VEC3"
    },
    {
      "bufferView": 1,
      "byteOffset": 5242576,
      "componentType": 5126,
      "count": 50799,
      "max": [
        0.9999999403953552,
        0.9994038343429565
      ],
      "min": [
        5.0065624236594886e-05,
        0.0005243904306553304
      ],
      "type": "VEC2"
    },
    {
      "bufferView": 0,
      "byteOffset": 12435804,
      "componentType": 5125,
      "count": 191043,
      "type": "SCALAR"
    }
  ],
  "asset": {
    "extras": {
      "author": "johnnokomis (https://sketchfab.com/johnnokomis)",
      "license": "CC-BY-4.0 (http://creativecommons.org/licenses/by/4.0/)",
      "source": "https://sketchfab.com/3d-models/westside-vet-hospital-154811e8a0e24e86b0fe060575c9593b",
      "title": "Westside Vet Hospital"
    },
    "generator": "Sketchfab-16.3.0",
    "version": "2.0"
  },
  "bufferViews": [
    {
      "buffer": 0,
      "byteLength": 13199976,
      "name": "floatBufferViews",
      "target": 34963
    },
    {
      "buffer": 0,
      "byteLength": 5648968,
      "byteOffset": 13199976,
      "byteStride": 8,
      "name": "floatBufferViews",
      "target": 34962
    },
    {
      "buffer": 0,
      "byteLength": 16946904,
      "byteOffset": 18848944,
      "byteStride": 12,
      "name": "floatBufferViews",
      "target": 34962
    }
  ],
  "buffers": [
    {
      "byteLength": 35795848,
      "uri": "scene.bin"
    }
  ],
  "extensionsUsed": [
    "KHR_materials_unlit"
  ],
  "images": [
    {
      "uri": "textures/material0_baseColor.jpeg"
    }
  ],
  "materials": [
    {
      "doubleSided": true,
      "extensions": {
        "KHR_materials_unlit": {}
      },
      "name": "material0",
      "pbrMetallicRoughness": {
        "baseColorTexture": {
          "index": 0
        },
        "metallicFactor": 0.0
      }
    }
  ],
  "meshes": [
    {
      "name": "Model_material0_0",
      "primitives": [
        {
          "attributes": {
            "NORMAL": 1,
            "POSITION": 0,
            "TEXCOORD_0": 2
          },
          "indices": 3,
          "material": 0,
          "mode": 4
        }
      ]
    },
    {
      "name": "Model_material0_0",
      "primitives": [
        {
          "attributes": {
            "NORMAL": 5,
            "POSITION": 4,
            "TEXCOORD_0": 6
          },
          "indices": 7,
          "material": 0,
          "mode": 4
        }
      ]
    },
    {
      "name": "Model_material0_0",
      "primitives": [
        {
          "attributes": {
            "NORMAL": 9,
            "POSITION": 8,
            "TEXCOORD_0": 10
          },
          "indices": 11,
          "material": 0,
          "mode": 4
        }
      ]
    },
    {
      "name": "Model_material0_0",
      "primitives": [
        {
          "attributes": {
            "NORMAL": 13,
            "POSITION": 12,
            "TEXCOORD_0": 14
          },
          "indices": 15,
          "material": 0,
          "mode": 4
        }
      ]
    },
    {
      "name": "Model_material0_0",
      "primitives": [
        {
          "attributes": {
            "NORMAL": 17,
            "POSITION": 16,
            "TEXCOORD_0": 18
          },
          "indices": 19,
          "material": 0,
          "mode": 4
        }
      ]
    },
    {
      "name": "Model_material0_0",
      "primitives": [
        {
          "attributes": {
            "NORMAL": 21,
            "POSITION": 20,
            "TEXCOORD_0": 22
          },
          "indices": 23,
          "material": 0,
          "mode": 4
        }
      ]
    },
    {
      "name": "Model_material0_0",
      "primitives": [
        {
          "attributes": {
            "NORMAL": 25,
            "POSITION": 24,
            "TEXCOORD_0": 26
          },
          "indices": 27,
          "material": 0,
          "mode": 4
        }
      ]
    },
    {
      "name": "Model_material0_0",
      "primitives": [
        {
          "attributes": {
            "NORMAL": 29,
            "POSITION": 28,
            "TEXCOORD_0": 30
          },
          "indices": 31,
          "material": 0,
          "mode": 4
        }
      ]
    },
    {
      "name": "Model_material0_0",
      "primitives": [
        {
          "attributes": {
            "NORMAL": 33,
            "POSITION": 32,
            "TEXCOORD_0": 34
          },
          "indices": 35,
          "material": 0,
          "mode": 4
        }
      ]
    },
    {
      "name": "Model_material0_0",
      "primitives": [
        {
          "attributes": {
            "NORMAL": 37,
            "POSITION": 36,
            "TEXCOORD_0": 38
          },
          "indices": 39,
          "material": 0,
          "mode": 4
        }
      ]
    },
    {
      "name": "Model_material0_0",
      "primitives": [
        {
          "attributes": {
            "NORMAL": 41,
            "POSITION": 40,
            "TEXCOORD_0": 42
          },
          "indices": 43,
          "material": 0,
          "mode": 4
        }
      ]
    }
  ],
  "nodes": [
    {
      "children": [
        1
      ],
      "matrix": [
        1.0,
        0.0,
        0.0,
        0.0,
        0.0,
        2.220446049250313e-16,
        -1.0,
        0.0,
        0.0,
        1.0,
        2.220446049250313e-16,
        0.0,
        0.0,
        0.0,
        0.0,
        1.0
      ],
      "name": "Sketchfab_model"
    },
    {
      "children": [
        2
      ],
      "matrix": [
        1.0,
        0.0,
        0.0,
        0.0,
        0.0,
        -1.0,
        0.0,
        0.0,
        0.0,
        0.0,
        -1.0,
        0.0,
        0.0,
        0.0,
        0.0,
        1.0
      ],
      "name": "model.fbx"
    },
    {
      "children": [
        3
      ],
      "name": "RootNode"
    },
    {
      "children": [
        4,
        5,
        6,
        7,
        8,
        9,
        10,
        11,
        12,
        13,
        14
      ],
      "name": "Model"
    },
    {
      "mesh": 0,
      "name": "Model_material0_0"
    },
    {
      "mesh": 1,
      "name": "Model_material0_0"
    },
    {
      "mesh": 2,
      "name": "Model_material0_0"
    },
    {
      "mesh": 3,
      "name": "Model_material0_0"
    },
    {
      "mesh": 4,
      "name": "Model_material0_0"
    },
    {
      "mesh": 5,
      "name": "Model_material0_0"
    },
    {
      "mesh": 6,
      "name": "Model_material0_0"
    },
    {
      "mesh": 7,
      "name": "Model_material0_0"
    },
    {
      "mesh": 8,
      "name": "Model_material0_0"
    },
    {
      "mesh": 9,
      "name": "Model_material0_0"
    },
    {
      "mesh": 10,
      "name": "Model_material0_0"
    }
  ],
  "samplers": [
    {
      "magFilter": 9729,
      "minFilter": 9987,
      "wrapS": 10497,
      "wrapT": 10497
    }
  ],
  "scene": 0,
  "scenes": [
    {
      "name": "Sketchfab_Scene",
      "nodes": [
        0
      ]
    }
  ],
  "textures": [
    {
      "sampler": 0,
      "source": 0
    }
  ]
}
